# xmcd
#
# Track frame offsets:
#	187
#	22627
#	42862
#	61017
#	84115
#	98600
#	120230
#	147227
#
# Disc length: 2214 seconds
#
# Revision: 1
# Processed by: cddbd v1.5PL3 Copyright (c) Steve Scherf et al.
# Submitted via: CDex 1.50Beta5
#
DISCID=4a08a408
DTITLE=浜田麻里 - MISTY LADY〜The First Period
DYEAR=1988
DGENRE=Pop
TTITLE0=Paradise
TTITLE1=Sweet Lie
TTITLE2=Heart Line
TTITLE3=Passing Over
TTITLE4=Fly On Wings
TTITLE5=Misty Lady
TTITLE6=More Fine Feeling
TTITLE7=Turning Point
EXTD=
EXTT0=
EXTT1=
EXTT2=
EXTT3=
EXTT4=
EXTT5=
EXTT6=
EXTT7=
PLAYORDER=
